<svg width="757" height="392" viewBox="0 0 757 392" fill="none" xmlns="http://www.w3.org/2000/svg">
<rect width="757" height="392" rx="5" fill="#D9D9D9"/>
<path d="M423.125 139.125H333.875C326.833 139.125 321.125 144.833 321.125 151.875V241.125C321.125 248.167 326.833 253.875 333.875 253.875H423.125C430.167 253.875 435.875 248.167 435.875 241.125V151.875C435.875 144.833 430.167 139.125 423.125 139.125Z" stroke="#8A8888" stroke-width="2" stroke-linecap="round" stroke-linejoin="round"/>
<path d="M356.188 183.75C361.469 183.75 365.75 179.469 365.75 174.188C365.75 168.906 361.469 164.625 356.188 164.625C350.906 164.625 346.625 168.906 346.625 174.188C346.625 179.469 350.906 183.75 356.188 183.75Z" stroke="#8A8888" stroke-width="2" stroke-linecap="round" stroke-linejoin="round"/>
<path d="M435.875 215.625L404 183.75L333.875 253.875" stroke="#8A8888" stroke-width="2" stroke-linecap="round" stroke-linejoin="round"/>
</svg>
