<svg width="94" height="59" viewBox="0 0 94 59" fill="none" xmlns="http://www.w3.org/2000/svg">
<path d="M37.384 58.224C36.552 58.224 35.88 57.936 35.368 57.36C34.856 56.784 34.6 55.728 34.6 54.192C34.6 52.592 34.888 50.8 35.464 48.816C36.04 46.832 36.744 44.816 37.576 42.768C38.408 40.656 39.24 38.672 40.072 36.816C40.968 34.896 41.704 33.264 42.28 31.92C43.112 30 43.816 28.304 44.392 26.832C44.968 25.296 45.256 24.208 45.256 23.568C45.256 23.12 45.096 22.896 44.776 22.896C44.584 22.896 44.232 23.056 43.72 23.376C41.992 24.528 39.912 26.416 37.48 29.04C35.048 31.6 32.68 34.8 30.376 38.64C28.072 42.416 26.248 46.768 24.904 51.696C24.776 52.208 24.104 52.816 22.888 53.52C21.672 54.16 20.648 54.48 19.816 54.48C19.048 54.48 18.664 54.192 18.664 53.616C18.664 53.552 18.664 53.488 18.664 53.424C18.728 53.36 18.76 53.296 18.76 53.232C19.336 50.48 20.136 47.312 21.16 43.728C22.248 40.08 23.368 36.464 24.52 32.88C25.736 29.296 26.824 26.256 27.784 23.76C28.104 22.928 28.264 22.352 28.264 22.032C28.264 21.712 28.168 21.552 27.976 21.552C27.656 21.552 27.176 21.904 26.536 22.608C21.864 27.984 18.184 32.752 15.496 36.912C12.808 41.008 10.696 44.464 9.16 47.28C7.688 50.032 6.408 52.112 5.32 53.52C4.296 54.928 3.048 55.632 1.576 55.632C1.064 55.632 0.808 55.376 0.808 54.864C0.808 54.16 1.096 53.232 1.672 52.08C2.312 50.928 2.696 50.16 2.824 49.776C3.464 48.24 4.104 46.544 4.744 44.688C5.384 42.768 5.992 40.88 6.568 39.024C7.208 37.168 7.752 35.536 8.2 34.128C8.648 32.656 8.968 31.632 9.16 31.056C9.416 30.288 9.544 29.712 9.544 29.328C9.544 29.008 9.48 28.784 9.352 28.656C9.288 28.528 9.256 28.336 9.256 28.08C9.256 27.824 9.352 27.408 9.544 26.832C10.888 22.928 12.104 20.272 13.192 18.864C14.28 17.456 15.88 16.752 17.992 16.752C18.888 16.752 19.368 17.04 19.432 17.616C18.984 18.576 18.312 19.952 17.416 21.744C16.584 23.536 15.656 25.552 14.632 27.792C13.672 30.032 12.744 32.272 11.848 34.512C11.016 36.752 10.408 38.8 10.024 40.656C10.856 39.376 11.944 37.68 13.288 35.568C14.696 33.456 16.264 31.248 17.992 28.944C19.784 26.576 21.608 24.336 23.464 22.224C25.384 20.112 27.272 18.416 29.128 17.136C30.984 15.792 32.712 15.12 34.312 15.12C34.824 15.12 35.272 15.216 35.656 15.408C36.04 15.536 36.232 15.856 36.232 16.368C36.232 16.944 36.008 17.584 35.56 18.288C32.808 22.896 30.568 27.152 28.84 31.056C27.176 34.896 25.896 38.928 25 43.152C26.536 40.144 27.976 37.52 29.32 35.28C30.664 32.976 32.104 30.896 33.64 29.04C35.24 27.12 37.064 25.232 39.112 23.376C41.224 21.52 43.752 19.536 46.696 17.424C47.144 17.104 47.848 16.784 48.808 16.464C49.768 16.144 50.664 15.984 51.496 15.984C52.776 15.984 53.416 16.432 53.416 17.328C53.416 17.776 53.224 18.384 52.84 19.152C51.176 22.096 49.384 25.488 47.464 29.328C45.544 33.104 43.784 37.008 42.184 41.04C40.648 45.008 39.528 48.752 38.824 52.272C38.632 52.912 38.536 53.552 38.536 54.192C38.536 55.088 38.824 55.536 39.4 55.536C39.784 55.536 40.456 55.216 41.416 54.576C42.376 54 42.984 53.712 43.24 53.712C43.56 53.712 43.72 53.904 43.72 54.288C43.72 55.056 43.016 55.888 41.608 56.784C40.264 57.744 38.856 58.224 37.384 58.224ZM65.539 10.896C64.643 10.896 64.099 10.576 63.907 9.936C63.715 9.232 63.619 8.496 63.619 7.728C63.619 6.768 64.099 5.776 65.059 4.752C66.019 3.664 67.139 2.768 68.419 2.064C69.763 1.296 70.883 0.911997 71.779 0.911997C72.099 0.911997 72.291 1.008 72.355 1.2C72.355 1.904 72.067 2.576 71.491 3.216C70.979 3.856 70.403 4.496 69.763 5.136C69.123 5.776 68.611 6.512 68.227 7.344C67.971 7.984 67.651 8.688 67.267 9.456C66.883 10.224 66.307 10.704 65.539 10.896ZM51.427 54.576C50.211 54.576 49.603 54 49.603 52.848C49.603 52.272 49.731 51.6 49.987 50.832C51.395 46.8 52.547 43.504 53.443 40.944C54.339 38.32 55.043 36.272 55.555 34.8C56.067 33.264 56.419 32.112 56.611 31.344C56.803 30.512 56.899 29.84 56.899 29.328C56.899 29.008 56.835 28.784 56.707 28.656C56.643 28.528 56.611 28.336 56.611 28.08C56.611 27.824 56.707 27.408 56.899 26.832C58.243 22.928 59.459 20.272 60.547 18.864C61.635 17.456 63.267 16.752 65.443 16.752C66.339 16.752 66.819 17.04 66.883 17.616C66.243 18.832 65.187 20.816 63.715 23.568C62.307 26.32 60.803 29.744 59.203 33.84C57.603 37.872 56.195 42.512 54.979 47.76C54.915 47.952 54.883 48.208 54.883 48.528C54.883 49.296 55.203 49.68 55.843 49.68C56.227 49.68 56.835 49.456 57.667 49.008C58.499 48.496 59.363 48.016 60.259 47.568C61.155 47.056 61.827 46.8 62.275 46.8C62.723 46.8 62.979 46.928 63.043 47.184C63.043 47.568 62.563 48.176 61.603 49.008C60.643 49.776 59.491 50.608 58.147 51.504C56.803 52.336 55.491 53.072 54.211 53.712C52.995 54.288 52.067 54.576 51.427 54.576ZM71.584 55.824C69.984 55.824 68.64 55.184 67.552 53.904C66.528 52.56 66.016 50.512 66.016 47.76C66.016 47.12 66.048 46.448 66.112 45.744C66.176 44.976 66.272 44.176 66.4 43.344C66.592 42.256 66.976 40.688 67.552 38.64C68.192 36.528 68.992 34.256 69.952 31.824C70.912 29.392 72 27.088 73.216 24.912C74.496 22.672 75.872 20.848 77.344 19.44C78.88 18.032 80.512 17.328 82.24 17.328H82.912C82.912 16.496 83.168 15.76 83.68 15.12C84.192 14.416 84.896 14.064 85.792 14.064C86.496 14.128 87.008 14.736 87.328 15.888C87.648 16.976 87.904 18.256 88.096 19.728C88.352 21.136 88.704 22.416 89.152 23.568C89.6 24.656 90.304 25.264 91.264 25.392C92.48 25.584 93.088 25.936 93.088 26.448C93.088 26.96 92.48 27.536 91.264 28.176C90.816 28.368 90.4 28.496 90.016 28.56C89.632 28.624 89.312 28.656 89.056 28.656C89.056 32.688 88.48 36.368 87.328 39.696C86.176 43.024 84.672 45.904 82.816 48.336C81.024 50.704 79.136 52.56 77.152 53.904C75.168 55.184 73.312 55.824 71.584 55.824ZM73.024 52.944C74.176 52.944 75.488 52.304 76.96 51.024C78.496 49.68 79.968 47.856 81.376 45.552C82.784 43.184 83.968 40.496 84.928 37.488C85.888 34.48 86.368 31.28 86.368 27.888C85.856 27.568 85.344 26.896 84.832 25.872C84.384 24.848 83.968 23.888 83.584 22.992C83.2 22.032 82.848 21.552 82.528 21.552C81.632 21.552 80.672 22.192 79.648 23.472C78.624 24.688 77.632 26.256 76.672 28.176C75.712 30.032 74.816 32.016 73.984 34.128C73.152 36.24 72.448 38.224 71.872 40.08C71.296 41.872 70.912 43.248 70.72 44.208C70.592 45.04 70.496 45.808 70.432 46.512C70.368 47.152 70.336 47.728 70.336 48.24C70.336 51.376 71.232 52.944 73.024 52.944Z" fill="white"/>
</svg>
