<svg width="13" height="8" viewBox="0 0 13 8" fill="none" xmlns="http://www.w3.org/2000/svg">
<path d="M5.548 7.528C5.444 7.528 5.36 7.492 5.296 7.42C5.232 7.348 5.2 7.216 5.2 7.024C5.2 6.824 5.236 6.6 5.308 6.352C5.38 6.104 5.468 5.852 5.572 5.596C5.676 5.332 5.78 5.084 5.884 4.852C5.996 4.612 6.088 4.408 6.16 4.24C6.264 4 6.352 3.788 6.424 3.604C6.496 3.412 6.532 3.276 6.532 3.196C6.532 3.14 6.512 3.112 6.472 3.112C6.448 3.112 6.404 3.132 6.34 3.172C6.124 3.316 5.864 3.552 5.56 3.88C5.256 4.2 4.96 4.6 4.672 5.08C4.384 5.552 4.156 6.096 3.988 6.712C3.972 6.776 3.888 6.852 3.736 6.94C3.584 7.02 3.456 7.06 3.352 7.06C3.256 7.06 3.208 7.024 3.208 6.952C3.208 6.944 3.208 6.936 3.208 6.928C3.216 6.92 3.22 6.912 3.22 6.904C3.292 6.56 3.392 6.164 3.52 5.716C3.656 5.26 3.796 4.808 3.94 4.36C4.092 3.912 4.228 3.532 4.348 3.22C4.388 3.116 4.408 3.044 4.408 3.004C4.408 2.964 4.396 2.944 4.372 2.944C4.332 2.944 4.272 2.988 4.192 3.076C3.608 3.748 3.148 4.344 2.812 4.864C2.476 5.376 2.212 5.808 2.02 6.16C1.836 6.504 1.676 6.764 1.54 6.94C1.412 7.116 1.256 7.204 1.072 7.204C1.008 7.204 0.976 7.172 0.976 7.108C0.976 7.02 1.012 6.904 1.084 6.76C1.164 6.616 1.212 6.52 1.228 6.472C1.308 6.28 1.388 6.068 1.468 5.836C1.548 5.596 1.624 5.36 1.696 5.128C1.776 4.896 1.844 4.692 1.9 4.516C1.956 4.332 1.996 4.204 2.02 4.132C2.052 4.036 2.068 3.964 2.068 3.916C2.068 3.876 2.06 3.848 2.044 3.832C2.036 3.816 2.032 3.792 2.032 3.76C2.032 3.728 2.044 3.676 2.068 3.604C2.236 3.116 2.388 2.784 2.524 2.608C2.66 2.432 2.86 2.344 3.124 2.344C3.236 2.344 3.296 2.38 3.304 2.452C3.248 2.572 3.164 2.744 3.052 2.968C2.948 3.192 2.832 3.444 2.704 3.724C2.584 4.004 2.468 4.284 2.356 4.564C2.252 4.844 2.176 5.1 2.128 5.332C2.232 5.172 2.368 4.96 2.536 4.696C2.712 4.432 2.908 4.156 3.124 3.868C3.348 3.572 3.576 3.292 3.808 3.028C4.048 2.764 4.284 2.552 4.516 2.392C4.748 2.224 4.964 2.14 5.164 2.14C5.228 2.14 5.284 2.152 5.332 2.176C5.38 2.192 5.404 2.232 5.404 2.296C5.404 2.368 5.376 2.448 5.32 2.536C4.976 3.112 4.696 3.644 4.48 4.132C4.272 4.612 4.112 5.116 4 5.644C4.192 5.268 4.372 4.94 4.54 4.66C4.708 4.372 4.888 4.112 5.08 3.88C5.28 3.64 5.508 3.404 5.764 3.172C6.028 2.94 6.344 2.692 6.712 2.428C6.768 2.388 6.856 2.348 6.976 2.308C7.096 2.268 7.208 2.248 7.312 2.248C7.472 2.248 7.552 2.304 7.552 2.416C7.552 2.472 7.528 2.548 7.48 2.644C7.272 3.012 7.048 3.436 6.808 3.916C6.568 4.388 6.348 4.876 6.148 5.38C5.956 5.876 5.816 6.344 5.728 6.784C5.704 6.864 5.692 6.944 5.692 7.024C5.692 7.136 5.728 7.192 5.8 7.192C5.848 7.192 5.932 7.152 6.052 7.072C6.172 7 6.248 6.964 6.28 6.964C6.32 6.964 6.34 6.988 6.34 7.036C6.34 7.132 6.252 7.236 6.076 7.348C5.908 7.468 5.732 7.528 5.548 7.528ZM9.06738 1.612C8.95538 1.612 8.88738 1.572 8.86338 1.492C8.83938 1.404 8.82738 1.312 8.82738 1.216C8.82738 1.096 8.88738 0.972 9.00738 0.844C9.12738 0.708 9.26738 0.596 9.42738 0.508C9.59538 0.412 9.73538 0.364 9.84738 0.364C9.88738 0.364 9.91138 0.376 9.91938 0.4C9.91938 0.488 9.88338 0.572 9.81138 0.651999C9.74738 0.731999 9.67538 0.812 9.59538 0.892C9.51538 0.972 9.45138 1.064 9.40338 1.168C9.37138 1.248 9.33138 1.336 9.28338 1.432C9.23538 1.528 9.16338 1.588 9.06738 1.612ZM7.30338 7.072C7.15138 7.072 7.07538 7 7.07538 6.856C7.07538 6.784 7.09138 6.7 7.12338 6.604C7.29938 6.1 7.44338 5.688 7.55538 5.368C7.66738 5.04 7.75538 4.784 7.81938 4.6C7.88338 4.408 7.92738 4.264 7.95138 4.168C7.97538 4.064 7.98738 3.98 7.98738 3.916C7.98738 3.876 7.97938 3.848 7.96338 3.832C7.95538 3.816 7.95138 3.792 7.95138 3.76C7.95138 3.728 7.96338 3.676 7.98738 3.604C8.15538 3.116 8.30738 2.784 8.44337 2.608C8.57938 2.432 8.78338 2.344 9.05538 2.344C9.16738 2.344 9.22738 2.38 9.23538 2.452C9.15538 2.604 9.02338 2.852 8.83938 3.196C8.66338 3.54 8.47538 3.968 8.27538 4.48C8.07538 4.984 7.89938 5.564 7.74738 6.22C7.73938 6.244 7.73538 6.276 7.73538 6.316C7.73538 6.412 7.77538 6.46 7.85538 6.46C7.90338 6.46 7.97938 6.432 8.08338 6.376C8.18738 6.312 8.29538 6.252 8.40738 6.196C8.51938 6.132 8.60338 6.1 8.65938 6.1C8.71538 6.1 8.74738 6.116 8.75538 6.148C8.75538 6.196 8.69538 6.272 8.57538 6.376C8.45538 6.472 8.31138 6.576 8.14338 6.688C7.97538 6.792 7.81138 6.884 7.65137 6.964C7.49938 7.036 7.38338 7.072 7.30338 7.072ZM9.823 7.228C9.623 7.228 9.455 7.148 9.319 6.988C9.191 6.82 9.127 6.564 9.127 6.22C9.127 6.14 9.131 6.056 9.139 5.968C9.147 5.872 9.159 5.772 9.175 5.668C9.199 5.532 9.247 5.336 9.319 5.08C9.399 4.816 9.499 4.532 9.619 4.228C9.739 3.924 9.875 3.636 10.027 3.364C10.187 3.084 10.359 2.856 10.543 2.68C10.735 2.504 10.939 2.416 11.155 2.416H11.239C11.239 2.312 11.271 2.22 11.335 2.14C11.399 2.052 11.487 2.008 11.599 2.008C11.687 2.016 11.751 2.092 11.791 2.236C11.831 2.372 11.863 2.532 11.887 2.716C11.919 2.892 11.963 3.052 12.019 3.196C12.075 3.332 12.163 3.408 12.283 3.424C12.435 3.448 12.511 3.492 12.511 3.556C12.511 3.62 12.435 3.692 12.283 3.772C12.227 3.796 12.175 3.812 12.127 3.82C12.079 3.828 12.039 3.832 12.007 3.832C12.007 4.336 11.935 4.796 11.791 5.212C11.647 5.628 11.459 5.988 11.227 6.292C11.003 6.588 10.767 6.82 10.519 6.988C10.271 7.148 10.039 7.228 9.823 7.228ZM10.003 6.868C10.147 6.868 10.311 6.788 10.495 6.628C10.687 6.46 10.871 6.232 11.047 5.944C11.223 5.648 11.371 5.312 11.491 4.936C11.611 4.56 11.671 4.16 11.671 3.736C11.607 3.696 11.543 3.612 11.479 3.484C11.423 3.356 11.371 3.236 11.323 3.124C11.275 3.004 11.231 2.944 11.191 2.944C11.079 2.944 10.959 3.024 10.831 3.184C10.703 3.336 10.579 3.532 10.459 3.772C10.339 4.004 10.227 4.252 10.123 4.516C10.019 4.78 9.931 5.028 9.859 5.26C9.787 5.484 9.739 5.656 9.715 5.776C9.699 5.88 9.687 5.976 9.679 6.064C9.671 6.144 9.667 6.216 9.667 6.28C9.667 6.672 9.779 6.868 10.003 6.868Z" fill="black"/>
</svg>
