<svg width="132" height="120" viewBox="0 0 132 120" fill="none" xmlns="http://www.w3.org/2000/svg">
<rect y="13" width="132" height="94" rx="20" fill="#D9D9D9"/>
<path d="M57.384 86.224C56.552 86.224 55.88 85.936 55.368 85.36C54.856 84.784 54.6 83.728 54.6 82.192C54.6 80.592 54.888 78.8 55.464 76.816C56.04 74.832 56.744 72.816 57.576 70.768C58.408 68.656 59.24 66.672 60.072 64.816C60.968 62.896 61.704 61.264 62.28 59.92C63.112 58 63.816 56.304 64.392 54.832C64.968 53.296 65.256 52.208 65.256 51.568C65.256 51.12 65.096 50.896 64.776 50.896C64.584 50.896 64.232 51.056 63.72 51.376C61.992 52.528 59.912 54.416 57.48 57.04C55.048 59.6 52.68 62.8 50.376 66.64C48.072 70.416 46.248 74.768 44.904 79.696C44.776 80.208 44.104 80.816 42.888 81.52C41.672 82.16 40.648 82.48 39.816 82.48C39.048 82.48 38.664 82.192 38.664 81.616C38.664 81.552 38.664 81.488 38.664 81.424C38.728 81.36 38.76 81.296 38.76 81.232C39.336 78.48 40.136 75.312 41.16 71.728C42.248 68.08 43.368 64.464 44.52 60.88C45.736 57.296 46.824 54.256 47.784 51.76C48.104 50.928 48.264 50.352 48.264 50.032C48.264 49.712 48.168 49.552 47.976 49.552C47.656 49.552 47.176 49.904 46.536 50.608C41.864 55.984 38.184 60.752 35.496 64.912C32.808 69.008 30.696 72.464 29.16 75.28C27.688 78.032 26.408 80.112 25.32 81.52C24.296 82.928 23.048 83.632 21.576 83.632C21.064 83.632 20.808 83.376 20.808 82.864C20.808 82.16 21.096 81.232 21.672 80.08C22.312 78.928 22.696 78.16 22.824 77.776C23.464 76.24 24.104 74.544 24.744 72.688C25.384 70.768 25.992 68.88 26.568 67.024C27.208 65.168 27.752 63.536 28.2 62.128C28.648 60.656 28.968 59.632 29.16 59.056C29.416 58.288 29.544 57.712 29.544 57.328C29.544 57.008 29.48 56.784 29.352 56.656C29.288 56.528 29.256 56.336 29.256 56.08C29.256 55.824 29.352 55.408 29.544 54.832C30.888 50.928 32.104 48.272 33.192 46.864C34.28 45.456 35.88 44.752 37.992 44.752C38.888 44.752 39.368 45.04 39.432 45.616C38.984 46.576 38.312 47.952 37.416 49.744C36.584 51.536 35.656 53.552 34.632 55.792C33.672 58.032 32.744 60.272 31.848 62.512C31.016 64.752 30.408 66.8 30.024 68.656C30.856 67.376 31.944 65.68 33.288 63.568C34.696 61.456 36.264 59.248 37.992 56.944C39.784 54.576 41.608 52.336 43.464 50.224C45.384 48.112 47.272 46.416 49.128 45.136C50.984 43.792 52.712 43.12 54.312 43.12C54.824 43.12 55.272 43.216 55.656 43.408C56.04 43.536 56.232 43.856 56.232 44.368C56.232 44.944 56.008 45.584 55.56 46.288C52.808 50.896 50.568 55.152 48.84 59.056C47.176 62.896 45.896 66.928 45 71.152C46.536 68.144 47.976 65.52 49.32 63.28C50.664 60.976 52.104 58.896 53.64 57.04C55.24 55.12 57.064 53.232 59.112 51.376C61.224 49.52 63.752 47.536 66.696 45.424C67.144 45.104 67.848 44.784 68.808 44.464C69.768 44.144 70.664 43.984 71.496 43.984C72.776 43.984 73.416 44.432 73.416 45.328C73.416 45.776 73.224 46.384 72.84 47.152C71.176 50.096 69.384 53.488 67.464 57.328C65.544 61.104 63.784 65.008 62.184 69.04C60.648 73.008 59.528 76.752 58.824 80.272C58.632 80.912 58.536 81.552 58.536 82.192C58.536 83.088 58.824 83.536 59.4 83.536C59.784 83.536 60.456 83.216 61.416 82.576C62.376 82 62.984 81.712 63.24 81.712C63.56 81.712 63.72 81.904 63.72 82.288C63.72 83.056 63.016 83.888 61.608 84.784C60.264 85.744 58.856 86.224 57.384 86.224ZM85.539 38.896C84.643 38.896 84.099 38.576 83.907 37.936C83.715 37.232 83.619 36.496 83.619 35.728C83.619 34.768 84.099 33.776 85.059 32.752C86.019 31.664 87.139 30.768 88.419 30.064C89.763 29.296 90.883 28.912 91.779 28.912C92.099 28.912 92.291 29.008 92.355 29.2C92.355 29.904 92.067 30.576 91.491 31.216C90.979 31.856 90.403 32.496 89.763 33.136C89.123 33.776 88.611 34.512 88.227 35.344C87.971 35.984 87.651 36.688 87.267 37.456C86.883 38.224 86.307 38.704 85.539 38.896ZM71.427 82.576C70.211 82.576 69.603 82 69.603 80.848C69.603 80.272 69.731 79.6 69.987 78.832C71.395 74.8 72.547 71.504 73.443 68.944C74.339 66.32 75.043 64.272 75.555 62.8C76.067 61.264 76.419 60.112 76.611 59.344C76.803 58.512 76.899 57.84 76.899 57.328C76.899 57.008 76.835 56.784 76.707 56.656C76.643 56.528 76.611 56.336 76.611 56.08C76.611 55.824 76.707 55.408 76.899 54.832C78.243 50.928 79.459 48.272 80.547 46.864C81.635 45.456 83.267 44.752 85.443 44.752C86.339 44.752 86.819 45.04 86.883 45.616C86.243 46.832 85.187 48.816 83.715 51.568C82.307 54.32 80.803 57.744 79.203 61.84C77.603 65.872 76.195 70.512 74.979 75.76C74.915 75.952 74.883 76.208 74.883 76.528C74.883 77.296 75.203 77.68 75.843 77.68C76.227 77.68 76.835 77.456 77.667 77.008C78.499 76.496 79.363 76.016 80.259 75.568C81.155 75.056 81.827 74.8 82.275 74.8C82.723 74.8 82.979 74.928 83.043 75.184C83.043 75.568 82.563 76.176 81.603 77.008C80.643 77.776 79.491 78.608 78.147 79.504C76.803 80.336 75.491 81.072 74.211 81.712C72.995 82.288 72.067 82.576 71.427 82.576ZM91.584 83.824C89.984 83.824 88.64 83.184 87.552 81.904C86.528 80.56 86.016 78.512 86.016 75.76C86.016 75.12 86.048 74.448 86.112 73.744C86.176 72.976 86.272 72.176 86.4 71.344C86.592 70.256 86.976 68.688 87.552 66.64C88.192 64.528 88.992 62.256 89.952 59.824C90.912 57.392 92 55.088 93.216 52.912C94.496 50.672 95.872 48.848 97.344 47.44C98.88 46.032 100.512 45.328 102.24 45.328H102.912C102.912 44.496 103.168 43.76 103.68 43.12C104.192 42.416 104.896 42.064 105.792 42.064C106.496 42.128 107.008 42.736 107.328 43.888C107.648 44.976 107.904 46.256 108.096 47.728C108.352 49.136 108.704 50.416 109.152 51.568C109.6 52.656 110.304 53.264 111.264 53.392C112.48 53.584 113.088 53.936 113.088 54.448C113.088 54.96 112.48 55.536 111.264 56.176C110.816 56.368 110.4 56.496 110.016 56.56C109.632 56.624 109.312 56.656 109.056 56.656C109.056 60.688 108.48 64.368 107.328 67.696C106.176 71.024 104.672 73.904 102.816 76.336C101.024 78.704 99.136 80.56 97.152 81.904C95.168 83.184 93.312 83.824 91.584 83.824ZM93.024 80.944C94.176 80.944 95.488 80.304 96.96 79.024C98.496 77.68 99.968 75.856 101.376 73.552C102.784 71.184 103.968 68.496 104.928 65.488C105.888 62.48 106.368 59.28 106.368 55.888C105.856 55.568 105.344 54.896 104.832 53.872C104.384 52.848 103.968 51.888 103.584 50.992C103.2 50.032 102.848 49.552 102.528 49.552C101.632 49.552 100.672 50.192 99.648 51.472C98.624 52.688 97.632 54.256 96.672 56.176C95.712 58.032 94.816 60.016 93.984 62.128C93.152 64.24 92.448 66.224 91.872 68.08C91.296 69.872 90.912 71.248 90.72 72.208C90.592 73.04 90.496 73.808 90.432 74.512C90.368 75.152 90.336 75.728 90.336 76.24C90.336 79.376 91.232 80.944 93.024 80.944Z" fill="white"/>
</svg>
